<?xml version="1.0" encoding="UTF-8"?>
<svg id="Camada_2" data-name="Camada 2" xmlns="http://www.w3.org/2000/svg" viewBox="0 0 209.52 190.06">
  <defs>
    <style>
      .cls-1 {
        stroke: #000;
        stroke-miterlimit: 10;
      }
    </style>
  </defs>
  <g id="Camada_1-2" data-name="Camada 1">
    <path class="cls-1" d="m209.02,66.93c-1.03,3.27-2.16,6.52-3.06,9.82-.72,2.64-2.09,4.76-3.9,6.79-1.21,1.36-2.29,3.06-2.8,4.79-7.31,24.98-14.47,50-21.79,74.97-.75,2.56-.32,4.92-.17,7.41.14,2.45.05,4.98-.41,7.39-.55,2.92-1.63,5.73-2.4,8.61-.42,1.56-1.34,2.52-2.88,2.78-1.68.29-3.11-.25-4.07-1.7-1.41-2.14-2.77-4.31-4.2-6.56-1.86.89-3.56,1.71-5.27,2.52-4.01,1.9-4.75,1.69-7.1-2-1.02-1.6-2.04-3.19-3.17-4.97-2.2,1.03-4.31,2.04-6.44,3.02-2.54,1.17-3.8.8-5.31-1.53-1.25-1.93-2.47-3.88-3.8-5.97-2.22,1.04-4.34,2.05-6.48,3.04-2.54,1.17-3.76.81-5.29-1.56-1.18-1.82-2.34-3.66-3.51-5.48-.07-.11-.2-.18-.43-.38-1.82.85-3.71,1.73-5.6,2.62-3.49,1.65-4.36,1.4-6.47-1.92-1.02-1.6-2.04-3.2-3.07-4.8-.07-.11-.2-.17-.46-.38-2.06.97-4.22,1.91-6.31,2.98-1.77.91-3.39.84-4.91-.43-1.48-1.23-1.41-2.75-.89-4.44.91-2.91,1.41-5.99,2.63-8.75,1.12-2.54,3.01-4.74,4.48-7.14.94-1.53,2.08-3.05,2.57-4.73,7.33-25.11,14.59-50.24,21.75-75.4.51-1.79.14-3.82.19-5.75.06-2.34-.2-4.74.25-7,.65-3.31,1.85-6.51,2.74-9.78.47-1.73,1.38-2.99,3.21-3.25,1.85-.26,3.04.78,3.96,2.29,1.2,1.96,2.46,3.88,3.81,5.99,2.09-.99,4.1-1.93,6.1-2.88,2.97-1.4,4.09-1.07,5.89,1.74,1.16,1.82,2.32,3.64,3.58,5.61,2.24-1.06,4.36-2.08,6.5-3.07,2.41-1.12,3.75-.75,5.18,1.45,1.29,1.98,2.53,3.99,3.86,6.09,2.3-1.09,4.42-2.11,6.56-3.1,2.41-1.11,3.69-.73,5.15,1.51,1.25,1.93,2.47,3.88,3.86,6.06,2.1-1.01,4.15-2,6.21-2.97,2.76-1.3,4-.95,5.63,1.58,1.2,1.88,2.39,3.77,3.7,5.82,1.95-.92,3.84-1.79,5.72-2.68,3.3-1.56,4.38-1.36,6.66,1.29v2.44Zm-8.42,4.36c-1.17.54-1.97.91-2.76,1.28-2.86,1.33-4.04.99-5.75-1.69-1.2-1.88-2.39-3.75-3.64-5.7-2.28,1.08-4.41,2.11-6.56,3.09-2.43,1.11-3.66.74-5.14-1.53-1.29-1.98-2.54-3.97-3.76-5.86-.27,0-.35-.02-.41,0-2.03.95-4.05,1.9-6.08,2.84-2.66,1.23-3.83.88-5.44-1.62-1.24-1.92-2.45-3.86-3.72-5.86-1.64.77-3.11,1.45-4.57,2.15-5.08,2.41-5.29,2.35-8.25-2.32-.9-1.42-1.82-2.82-2.77-4.29-1.86.88-3.57,1.68-5.28,2.49-4.06,1.93-4.7,1.75-7.09-1.97-.35-.55-.75-1.07-1.23-1.75-1.18,3.17-1.92,6.02-1.18,9.3.48,2.14.34,4.63-.27,6.76-6.91,24.32-14.02,48.58-20.92,72.91-1.34,4.73-3.13,8.98-6.66,12.56-1.33,1.35-1.74,3.62-2.57,5.47.19.12.38.25.56.37.6-.26,1.21-.51,1.8-.79,4.25-2,4.79-1.84,7.35,2.19,1,1.58,2.01,3.16,3.03,4.76,2.28-1.09,4.29-2.06,6.31-3.01,2.66-1.25,3.9-.9,5.47,1.53,1.25,1.93,2.47,3.87,3.77,5.92,2.25-1.06,4.38-2.08,6.53-3.07,2.46-1.13,3.69-.78,5.15,1.46,1.29,1.98,2.55,3.98,3.89,6.07,2.25-1.06,4.38-2.09,6.52-3.07,2.46-1.13,3.68-.78,5.15,1.48,1.29,1.98,2.55,3.97,3.88,6.07,2.33-1.1,4.51-2.17,6.72-3.18,2.22-1.01,3.47-.63,4.85,1.42.71,1.05,1.38,2.14,2.23,3.45.94-2.73,1.75-5.1,1.11-7.8-.7-2.98-.83-5.94.07-9.03,7.42-25.37,14.74-50.77,22.03-76.18.75-2.63,1.83-4.99,3.91-6.75,2.43-2.06,2.92-4.89,3.68-8.11Z"/>
    <path class="cls-1" d="m61.65,176.74c-1.32,2.08-2.56,4.08-3.85,6.06-1.45,2.23-2.76,2.6-5.16,1.5-2.14-.98-4.26-2.01-6.52-3.08-1.39,2.17-2.74,4.19-3.99,6.27-.91,1.51-2.17,2.23-3.89,2.01-1.78-.23-2.9-1.21-3.38-3.04-.81-3.08-2.09-6.07-2.55-9.19-.41-2.81.05-5.75.07-8.63,0-1.47.16-3.02-.23-4.39-7.31-25.54-14.68-51.06-22.11-76.56-.4-1.36-1.25-2.74-2.26-3.74-2.24-2.22-3.74-4.75-4.49-7.82-.75-3.02-1.64-6.01-2.56-8.99-.5-1.61-.22-2.98,1.02-4.07,1.25-1.1,2.68-1.15,4.17-.44,2.25,1.08,4.51,2.14,6.87,3.25,1.31-2.06,2.54-4.01,3.78-5.94,1.53-2.37,2.77-2.74,5.29-1.58,2.09.96,4.16,1.96,6.47,3.06,1.29-2.02,2.54-4.01,3.81-5.98,1.51-2.34,2.78-2.71,5.31-1.54,2.09.97,4.16,1.97,6.43,3.04,1.12-1.75,2.21-3.45,3.29-5.16,2.19-3.45,3.06-3.7,6.81-1.91,1.76.84,3.52,1.68,5.47,2.61,1.33-2.09,2.57-4.1,3.86-6.07,1.45-2.22,2.73-2.6,5.17-1.49,2.15.97,4.27,2,6.54,3.07,1.34-2.11,2.65-4.07,3.87-6.09.94-1.54,2.22-2.39,4.03-2.15,1.79.24,2.6,1.48,3.04,3.13.66,2.49,1.26,5.01,2.14,7.42,1.39,3.77,1.57,7.49.55,11.37-.28,1.08.04,2.42.37,3.56,3.89,13.62,7.86,27.21,11.73,40.84.31,1.09.26,2.4-.01,3.52-.77,3.12-1.74,6.2-2.78,9.77-.37-1.11-.6-1.73-.78-2.37-4.85-16.8-9.75-33.58-14.49-50.41-.58-2.07-.76-4.49-.29-6.56.76-3.33.1-6.27-1.17-9.53-.61.93-1.13,1.69-1.64,2.47-1.79,2.78-2.88,3.09-5.91,1.66-1.95-.92-3.9-1.86-6.04-2.88-1.3,2.05-2.55,4.05-3.83,6.02-1.52,2.34-2.76,2.68-5.31,1.5-2.08-.96-4.15-1.96-6.41-3.02-1.3,2.03-2.56,4.02-3.84,5.99-1.53,2.35-2.72,2.68-5.31,1.49-2.09-.96-4.16-1.96-6.42-3.03-1.26,1.98-2.48,3.92-3.71,5.84-1.64,2.55-2.83,2.88-5.62,1.58-1.96-.92-3.92-1.85-5.88-2.77-.06-.03-.13-.01-.41-.03-1.07,1.66-2.2,3.41-3.32,5.17-2.05,3.22-2.98,3.48-6.5,1.8-.61-.29-1.22-.57-2.28-1.05.77,2.67.79,5.25,2.73,7.04,2.8,2.58,4.32,5.73,5.35,9.37,7.14,25.02,14.48,49.99,21.55,75.03.74,2.61.5,5.65.09,8.39-.42,2.77.07,5.21,1.13,8.04.85-1.33,1.54-2.44,2.28-3.52,1.31-1.92,2.6-2.31,4.71-1.35,2.22,1,4.4,2.08,6.8,3.21,1.3-2.03,2.54-4.02,3.82-5.99,1.54-2.37,2.72-2.7,5.3-1.51,2.08.97,4.16,1.96,6.43,3.03,1.3-2.03,2.56-4.02,3.83-5.99,1.52-2.35,2.72-2.7,5.3-1.5,2.43,1.13,4.84,2.14,6.51,4.56.97,1.4,2.87,2.15,4.4,3.22-1.05,2.69-2.6,3.34-5.42,2.04-2.09-.96-4.16-1.96-6.42-3.03-1.2,1.88-2.35,3.69-3.51,5.51-1.91,3-2.93,3.28-6.21,1.72-1.89-.9-3.78-1.79-5.84-2.77Z"/>
    <path class="cls-1" d="m80.81,8.21c-1.72,1.52-3.3,2.91-4.88,4.29-2.48,2.17-3.72,2.18-6.15.05-.6-.52-1.2-1.04-2.06-1.79-.13,3.05-.57,5.75,1.09,8.28,1.61,2.46,2.11,5.22,2.03,8.15-.1,3.72-.02,7.45-.02,11.19-2.14-.22-4.12-.43-6.36-.67-.03-.26-.15-.76-.15-1.27-.02-2.44-.12-4.89.02-7.33.18-3.07-.39-5.86-1.97-8.55-.75-1.28-1.14-2.93-1.21-4.44-.17-3.93-.05-7.87-.07-11.81,0-1.59.64-2.75,2.07-3.44,1.54-.74,2.91-.34,4.13.73,1.83,1.6,3.64,3.22,5.57,4.92,1.71-1.51,3.32-2.95,4.94-4.38,2.43-2.13,3.59-2.13,5.97-.04,1.62,1.43,3.25,2.85,5.01,4.4,1.84-1.62,3.59-3.19,5.39-4.73,1.94-1.66,3.26-1.64,5.2.03,1.74,1.5,3.46,3.03,5.35,4.69,1.77-1.56,3.48-3.08,5.21-4.57,2.13-1.84,3.38-1.84,5.51,0,1.64,1.42,3.27,2.85,4.91,4.27.05.04.12.05.46.19,1.61-1.42,3.31-2.93,5.03-4.43,2.14-1.86,3.39-1.89,5.51-.07,1.74,1.5,3.46,3.03,5.27,4.63,1.81-1.6,3.55-3.11,5.25-4.65,1.31-1.19,2.72-1.81,4.44-.99,1.61.77,2.13,2.13,2.09,3.85-.06,2.24-.11,4.48,0,6.72.23,4.22-.22,8.23-2.59,11.9-.54.83-.61,2.07-.63,3.12-.07,3.78-.03,7.56-.03,11.23-2.24.23-4.23.43-6.52.66,0-2.17.05-4.44-.01-6.71-.14-4.98-.01-9.8,2.72-14.35.96-1.6.49-4.06.67-6.13-.16-.08-.32-.17-.48-.25-.63.55-1.26,1.1-1.89,1.65-2.36,2.05-3.71,2.06-6.02.03-1.63-1.43-3.25-2.87-4.99-4.4-1.77,1.56-3.47,3.09-5.2,4.58-2.08,1.79-3.49,1.79-5.53.01-1.73-1.5-3.45-3.03-5.22-4.59-1.87,1.65-3.63,3.25-5.44,4.79-1.79,1.53-3.28,1.52-5.07-.01-1.8-1.54-3.56-3.13-5.42-4.77-1.78,1.57-3.5,3.1-5.24,4.6-2.07,1.78-3.44,1.77-5.53-.04-1.69-1.46-3.36-2.96-5.17-4.56Z"/>
    <path class="cls-1" d="m75.36,109.72c-.51.92-1.1,2.47-2.1,3.7-1.91,2.36-2.09,4.62-.34,7.11.54.76,1.07,1.67,1.17,2.57.13,1.24.3,2.9-.37,3.7-.68.81-2.37,1.1-3.58,1.04-1.8-.1-3.56-.8-5.37-1.05-.67-.09-1.58.15-2.11.57-1.43,1.14-2.58,2.65-4.09,3.64-1.02.67-2.61,1.19-3.65.86-.92-.29-1.76-1.77-2.05-2.87-.47-1.81-.38-3.77-.71-5.63-.12-.67-.62-1.46-1.19-1.83-1.58-1.03-3.42-1.71-4.9-2.85-.9-.7-1.87-2.04-1.83-3.04.04-1.01,1.14-2.62,2.06-2.85,5.16-1.27,7.58-4.41,7.84-9.66.05-.97,1.32-2.43,2.27-2.65,1.06-.24,2.52.46,3.55,1.14,1.04.69,1.91,1.77,2.58,2.84,1.3,2.1,3.08,2.29,5.23,1.84,1.26-.27,2.55-.39,3.83-.5,2.14-.2,3.82,1.3,3.77,3.91Zm-20.34,6.42c2.68,1.04,3.66,3.03,3.64,6.24,1.88-2.75,4.1-3.07,6.54-2.34-.33-1.46-.82-2.58-.75-3.66.06-1.03.7-2.04,1.22-3.39-2.9,1.01-4.81-.14-6.56-2.8-.08,3.41-1.43,5.07-4.09,5.94Z"/>
    <path class="cls-1" d="m35.62,82.09c-1.9.02-3.25-1.05-3.5-2.65-.28-1.79.62-3.16,2.64-3.75,5.84-1.72,11.7-3.38,17.56-5.06,3.12-.9,6.24-1.81,9.37-2.67,2.03-.56,3.76.27,4.3,1.97.6,1.88-.29,3.63-2.41,4.25-8.96,2.62-17.95,5.18-26.93,7.75-.39.11-.8.13-1.03.16Z"/>
    <path class="cls-1" d="m104.64,28.26c-4.47,0-8.94.02-13.41,0-2.41-.01-3.88-1.23-3.93-3.17-.05-1.99,1.52-3.33,4-3.33,8.94-.01,17.88-.01,26.83,0,2.5,0,4.06,1.31,4.03,3.3-.03,1.99-1.54,3.2-4.1,3.21-4.47.02-8.94,0-13.41,0Z"/>
    <path class="cls-1" d="m86.36,147.21c-.67,2.1-1.23,4.1-1.96,6.04-.19.52-.82,1.07-1.36,1.22-7.92,2.3-15.86,4.55-23.81,6.77-1.9.53-3.55-.34-4.1-1.99-.56-1.67.26-3.51,2.09-4.05,9.21-2.71,18.45-5.34,27.68-7.97.42-.12.91-.02,1.47-.02Z"/>
    <path class="cls-1" d="m163.84,115.48c0,8.07-6.53,14.61-14.61,14.61-8.06,0-14.66-6.54-14.7-14.58-.05-8.01,6.57-14.71,14.56-14.74,8.17-.03,14.74,6.52,14.75,14.71Zm-6.52.1c.04-4.57-3.51-8.23-8.02-8.28-4.45-.05-8.22,3.66-8.24,8.11-.02,4.46,3.68,8.15,8.18,8.16,4.43,0,8.05-3.57,8.09-7.99Z"/>
    <path class="cls-1" d="m177.36,78.92c0,2.42-2.07,3.69-4.83,2.91-4.76-1.34-9.51-2.72-14.26-4.09-3.97-1.14-7.94-2.29-11.9-3.44-2.48-.72-3.51-2.23-2.95-4.26.51-1.87,2.28-2.66,4.6-2,8.73,2.48,17.45,4.99,26.17,7.48,1.77.5,3.13,1.32,3.17,3.41Z"/>
    <path class="cls-1" d="m124.39,147.15c2.56.73,5.55,1.59,8.54,2.45,6.12,1.76,12.24,3.5,18.35,5.28,2.51.73,3.59,2.26,3.08,4.19-.52,1.98-2.37,2.75-4.97,2.01-8.73-2.49-17.46-4.98-26.18-7.49-2.12-.61-3.17-2.09-2.84-3.83.33-1.74,1.69-2.76,4-2.61Z"/>
  </g>
</svg>