<?xml version="1.0" encoding="utf-8"?>
<!-- Generator: Adobe Illustrator 28.0.0, SVG Export Plug-In . SVG Version: 6.00 Build 0)  -->
<svg version="1.1" id="Camada_2_00000057122686638897594210000013435786979582384540_"
	 xmlns="http://www.w3.org/2000/svg" xmlns:xlink="http://www.w3.org/1999/xlink" x="0px" y="0px" viewBox="0 0 336.5 337.2"
	 style="enable-background:new 0 0 336.5 337.2;" xml:space="preserve">
<path d="M29.8,207.3c-5-5.3-8.3-11-8.5-18.1c-0.3-10.9,5.4-20.4,15-24.7c9.6-4.3,20.7-2.4,28.4,5.2C75.5,180.4,86.2,191.2,97,202
	c1,1,1.9,1.9,2.7,2.6c34.8-34.9,69.4-69.6,105.1-105.2c-0.8-0.5-2.2-0.9-3.2-1.9c-10.8-10.7-21.6-21.5-32.3-32.3
	c-7.1-7.2-9.2-16-6.3-25.6c2.9-9.5,9.5-15.4,19.2-17.5c7.7-1.6,14.9,0.1,21.1,5.1c1.1,0.8,2.1,1.8,3.4,2.9c0.4-1.2,0.7-2.2,1-3.2
	c5.6-18.1,28.1-24.5,41.6-11.2c24.1,23.6,47.9,47.4,71.5,71.6c13.4,13.8,7.1,36.2-11.3,41.9c-0.8,0.3-1.7,0.5-2.9,0.9
	c0.7,0.9,1.3,1.8,2,2.5c9.1,10.7,8.5,26-1.6,35.5c-10,9.5-25.4,9.5-35.5-0.4c-11.1-10.8-21.9-21.9-32.9-32.8c-0.8-0.8-1.6-1.5-2.2-2
	c-34.8,34.9-69.4,69.6-104.3,104.5c0.6,0.7,1.5,1.7,2.5,2.6c10.8,10.8,21.6,21.5,32.3,32.4c7,7.2,9.2,16,6.2,25.6
	c-2.9,9.3-9.3,15.2-18.9,17.4c-8,1.8-15.3,0-21.8-5.2c-1-0.8-1.9-1.6-3.1-2.6c-0.3,0.9-0.5,1.5-0.7,2.2c-6.1,19.9-28.6,25.6-43.4,11
	c-16.7-16.5-33.2-33.2-49.8-49.8c-6-6-11.7-12.3-18.1-18C1.6,238.4,7.2,212.5,29.8,207.3L29.8,207.3z"/>
<g>
	<path d="M230.7,230.5h26.5l38,92.3h-28.9l-5.9-16h-32.9l-5.9,16h-29L230.7,230.5L230.7,230.5z M236.7,283.3h14.8l-7.3-20.4H244
		L236.7,283.3L236.7,283.3z"/>
	<path d="M301.5,230.5h27.1v92.3h-27.1V230.5z"/>
</g>
</svg>
