<?xml version="1.0" encoding="UTF-8"?>
<svg id="Camada_2" data-name="Camada 2" xmlns="http://www.w3.org/2000/svg" viewBox="0 0 123.19 145.5">
  <defs>
    <style>
      .cls-1, .cls-2 {
        fill: #373536;
      }

      .cls-1, .cls-2, .cls-3 {
        stroke-width: 0px;
      }

      .cls-1, .cls-3 {
        fill-rule: evenodd;
      }

      .cls-3 {
        fill: #1866ac;
      }
    </style>
  </defs>
  <g id="Layer_1" data-name="Layer 1">
    <path class="cls-3" d="m25.3,0h77.78c5.46,0,9.94,4.73,9.94,10.51v5.03c0,7.1-9.62,7.08-9.62.05v-2.74c0-1.75-1.43-3.17-3.17-3.17H22.28c-1.75,0-3.17,1.43-3.17,3.17v2.69c0,7.07-9.17,7.02-9.17.15v-5.17C9.93,4.73,14.4,0,19.87,0h5.43Zm35.66,117.26h50.44c11.52,0,11.63-12.24,10.46-18.29-.64-4.06-7.54-4.03-8.3,0v4.72c0,2.15-1.76,3.92-3.92,3.92H12.93c-2.16,0-3.92-1.76-3.92-3.92v-4.72c-.76-4.03-7.66-4.06-8.3,0-1.17,6.04-1.06,18.29,10.46,18.29h49.79Z"/>
    <path class="cls-1" d="m92.15,53.84h8.04v-.09c3.66-.56,6.49-3.75,6.49-7.56h0c0-4.21-3.44-7.65-7.65-7.65h-16.2v39.99h20.54c4.34,0,7.9-3.55,7.9-7.9h0c0-4.34-3.55-7.9-7.9-7.9h-3.19v-.02h-8.04c-2.44,0-4.44-2-4.44-4.44h0c0-2.44,2-4.44,4.44-4.44h0Zm18.91,3.92c5.39,2.53,9.11,7.76,9.11,13.77h0c0,8.47-7.39,15.4-16.43,15.4h-25.33c-2.37,0-4.31-1.82-4.31-4.04v-48.19c0-2.32,1.9-4.23,4.23-4.23h21.1c8.88,0,16.15,7.26,16.15,16.13h0c0,4.32-1.72,8.25-4.51,11.16Z"/>
    <path class="cls-2" d="m28.52,132.05c0-.75.61-1.36,1.36-1.36s1.36.61,1.36,1.36v7.35h0s0,0,0,0c0,1.68-.69,3.21-1.79,4.31-1.1,1.1-2.62,1.78-4.3,1.79h0s0,0,0,0h0c-1.68,0-3.21-.69-4.31-1.8-1.1-1.1-1.78-2.62-1.79-4.3h0v-7.35c0-.75.61-1.36,1.36-1.36s1.36.61,1.36,1.36v7.35h0s0,0,0,0c0,.93.38,1.77,1,2.39.61.61,1.46,1,2.39,1h0s0,0,0,0h0c.93,0,1.78-.38,2.39-1,.61-.61,1-1.46,1-2.39h0v-7.35Z"/>
    <path class="cls-2" d="m41.35,142.78c.75,0,1.36.61,1.36,1.36s-.61,1.36-1.36,1.36h-3.75c-1.41,0-2.68-.58-3.61-1.5-.92-.92-1.49-2.2-1.49-3.6h0v-8.34c0-.75.61-1.36,1.36-1.36s1.36.61,1.36,1.36v8.34h0s0,0,0,0c0,.65.27,1.25.71,1.69.43.43,1.03.7,1.69.7h0s0,0,0,0h3.75Z"/>
    <path class="cls-2" d="m70.07,82.11c.3,2.79-1.73,5.29-4.52,5.59-2.79.3-5.29-1.72-5.59-4.52l-4.17-38.32-14.75,37.47v.04s-.02,0-.02,0h0s-.04.1-.04.1l-.03.08v.02s-.04.08-.04.08l-.02.05-.04.07-.02.03-.04.08v.03c-.29.51-.64.96-1.05,1.34h-.01s-.08.08-.08.08c-.27.24-.56.44-.88.62h-.02s-.1.06-.1.06h0s-.09.05-.09.05l-.04.02-.06.03-.06.03-.05.02-.06.03-.05.02-.05.02-.05.02h-.03s-.04.03-.04.03l-.07.03h-.04c-.49.18-.99.28-1.49.29h-.06s-.07,0-.07,0h-.18s-.06,0-.06,0c-.56-.02-1.12-.13-1.66-.35l-.07-.03h-.02s-.07-.04-.07-.04l-.07-.03-.05-.02-.06-.03-.06-.03-.03-.02-.09-.05h0s-.08-.05-.08-.05l-.04-.02c-.28-.16-.54-.34-.78-.54l-.02-.02c-.06-.05-.11-.1-.17-.15h0s-.09-.08-.13-.13c-.04-.04-.08-.08-.12-.13h0c-.05-.06-.1-.11-.15-.17l-.02-.02c-.2-.24-.38-.5-.54-.78l-.02-.04-.04-.08h0s-.05-.1-.05-.1l-.02-.04-.03-.06-.03-.06-.02-.05-.03-.07-.03-.07v-.02s-.03-.07-.03-.07l-14.77-37.51-4.16,38.32c-.3,2.79-2.8,4.81-5.59,4.52-2.79-.3-4.81-2.8-4.52-5.59l4.91-45.18h0s0-.03,0-.03h0c.06-.53.17-1.05.33-1.56.15-.5.36-.99.62-1.47,1.25-2.36,3.56-4.01,6.31-4.39h0c.09-.01.19-.02.28-.03.43-.04.86-.06,1.28-.04h.02s0,0,0,0c.55.03,1.06.1,1.54.21,2.63.61,4.86,2.44,5.91,5.11l12.57,31.93,12.57-31.93c1.05-2.67,3.28-4.49,5.91-5.11.47-.11.99-.18,1.54-.21h0s.02,0,.02,0c.42-.02.85,0,1.28.04.09,0,.18.02.27.03h0c2.75.38,5.06,2.03,6.31,4.39.25.48.46.97.62,1.47.16.51.27,1.04.33,1.56h0s0,.02,0,.02h0s4.91,45.19,4.91,45.19Z"/>
    <path class="cls-2" d="m18.52,143.98c.09.74-.44,1.42-1.19,1.51-.74.09-1.42-.44-1.51-1.19l-1.16-9.78-4.15,9.62c-.3.69-1.09,1.01-1.78.71-.33-.14-.58-.4-.71-.71h0l-4.15-9.62-1.16,9.78c-.09.74-.76,1.28-1.51,1.19-.74-.09-1.28-.76-1.19-1.51l1.35-11.36c.09-.74.54-1.35,1.19-1.68.08-.04.17-.08.26-.12.03-.01.07-.03.1-.04.12-.04.25-.07.4-.09h0s.01,0,.01,0h.01c.71-.09,1.41.14,1.9.6.1.09.19.2.28.32.06.08.11.17.16.25.03.05.05.1.08.15l3.52,8.16,3.52-8.16c.29-.67.89-1.13,1.59-1.29.13-.03.27-.05.4-.05.1,0,.2,0,.3,0h0s0,0,0,0c.03,0,.07,0,.1,0h.01s0,0,0,0h0c.73.09,1.34.5,1.69,1.09h0c.07.12.13.25.18.39.03.08.06.17.07.27.01.06.03.12.03.18h0s1.35,11.37,1.35,11.37Z"/>
    <path class="cls-2" d="m47.29,144.14c0,.75-.61,1.36-1.36,1.36s-1.36-.61-1.36-1.36v-10.73h-3.86c-.75,0-1.36-.61-1.36-1.36s.61-1.36,1.36-1.36h10.45c.75,0,1.36.61,1.36,1.36s-.61,1.36-1.36,1.36h-3.86v10.73Z"/>
    <path class="cls-2" d="m55.76,144.14c0,.75-.61,1.36-1.36,1.36s-1.36-.61-1.36-1.36v-12.09c0-.75.61-1.36,1.36-1.36s1.36.61,1.36,1.36v12.09Z"/>
    <path class="cls-2" d="m83.62,143.98c.09.74-.44,1.42-1.18,1.51-.74.09-1.42-.44-1.51-1.18l-.48-3.84h-4.71c-.75,0-1.36-.61-1.36-1.36s.61-1.36,1.36-1.36h4.37l-.12-1h0s0-.08,0-.11c-.04-.23-.09-.46-.16-.69-.08-.26-.17-.5-.28-.72-.54-1.08-1.51-1.83-2.75-1.83h-.01c-.24,0-.46.02-.68.08-.2.05-.41.13-.61.23-1.04.53-1.74,1.69-1.89,3.03l-.85,7.55c-.08.74-.75,1.28-1.5,1.2-.74-.08-1.28-.75-1.2-1.5l.85-7.55c.25-2.23,1.49-4.2,3.36-5.15.37-.19.77-.34,1.2-.44.42-.1.86-.16,1.32-.16h0s.01,0,.01,0h0c2.36,0,4.18,1.38,5.17,3.34.19.38.34.76.46,1.15.1.35.18.72.24,1.11,0,.04.02.08.02.13h0s.94,7.56.94,7.56Z"/>
    <path class="cls-2" d="m87.78,144.14c0,.75-.61,1.36-1.36,1.36s-1.36-.61-1.36-1.36v-11.23h0c0-.08,0-.16.02-.23.02-.15.06-.3.11-.44h0s0,0,0,0c.03-.08.07-.16.11-.24h0s0,0,0,0c.23-.41.6-.73,1.06-.89.06-.02.12-.04.19-.05.05-.01.1-.02.14-.03h.01c.09-.02.2-.03.33-.02h.04c.56.02,1.08.28,1.44.74l7.23,9.22v-8.9c0-.75.61-1.36,1.36-1.36s1.36.61,1.36,1.36v11.18c0,.59-.27,1.12-.71,1.49-.08.07-.18.13-.28.19-.05.03-.11.06-.17.08h-.01s0,0,0,0c-.04.02-.07.03-.11.05h0s0,0,0,0h0s0,0,0,0c-.49.17-1.01.13-1.46-.08-.06-.03-.12-.06-.17-.09-.09-.06-.18-.12-.27-.2-.05-.05-.11-.11-.17-.18l-.04-.05h0s0,0,0,0l-.02-.02-7.23-9.22v8.95Z"/>
    <path class="cls-2" d="m108.99,142.78c.75,0,1.36.61,1.36,1.36s-.61,1.36-1.36,1.36h-4c-1.47,0-2.82-.61-3.79-1.58-.97-.97-1.57-2.3-1.57-3.78h0v-4.09h0s0,0,0,0c0-1.47.6-2.82,1.57-3.79.97-.97,2.3-1.57,3.78-1.57h0s0,0,0,0h4c.75,0,1.36.61,1.36,1.36s-.61,1.36-1.36,1.36h-4.01c-.72,0-1.38.29-1.87.78-.48.48-.78,1.14-.78,1.86h0v4.09h0s0,0,0,0c0,.72.3,1.39.78,1.87.48.48,1.14.78,1.86.78h0s0,0,0,0h4Z"/>
    <path class="cls-2" d="m116.85,130.69h0c1.73,0,3.31.69,4.45,1.79,1.16,1.11,1.87,2.65,1.87,4.35h0v2.53h0s0,0,0,0c0,1.7-.72,3.24-1.88,4.35-1.14,1.1-2.72,1.78-4.45,1.78h0s0,0,0,0h0c-1.73,0-3.31-.69-4.45-1.79-1.16-1.11-1.87-2.65-1.87-4.35h0v-2.53h0s0,0,0,0c0-1.7.72-3.24,1.88-4.35,1.14-1.1,2.72-1.78,4.45-1.78h0s0,0,0,0h0Zm0,2.71h0s0,0,0,0h0c-1,0-1.91.39-2.57,1.02-.65.62-1.05,1.47-1.05,2.4h0v2.53h0s0,0,0,0c0,.93.4,1.78,1.05,2.4.66.63,1.57,1.03,2.57,1.03h0s0,0,0,0h0c1,0,1.91-.39,2.57-1.02.65-.62,1.05-1.47,1.05-2.4h0v-2.53h0s0,0,0,0c0-.93-.4-1.78-1.05-2.4-.66-.63-1.57-1.03-2.57-1.03Z"/>
    <path class="cls-2" d="m56.9,138.01v-5.9h0c0-.19.04-.38.11-.54.07-.18.18-.34.31-.47l.02-.02h0c.23-.22.54-.37.89-.39.03,0,.05,0,.08,0h0s0,0,0,0h5.24c1.19,0,2.28.49,3.06,1.28.78.78,1.27,1.86,1.27,3.06h0s0,0,0,0c0,.85-.25,1.64-.67,2.3.28.18.54.38.77.62.03.03.06.06.08.09.75.79,1.21,1.86,1.21,3.03h0s0,0,0,0c0,1.22-.5,2.32-1.3,3.12-.8.8-1.9,1.29-3.12,1.29h0s0,0,0,0h-6.6c-.75,0-1.36-.61-1.36-1.36v-6.13h0Zm2.72-4.6v9.37h5.25c.47,0,.89-.19,1.21-.5.31-.31.5-.74.5-1.2h0s0,0,0,0c0-.44-.17-.84-.45-1.15l-.05-.05c-.31-.31-.74-.51-1.2-.51h0s0,0,0,0h-1.81c-.75,0-1.36-.61-1.36-1.36h0c0-.75.61-1.36,1.36-1.36h.62c.39-.03.75-.21,1.02-.48h0s0,0,0,0c.29-.29.48-.7.48-1.14h0s0,0,0,0c0-.44-.18-.85-.48-1.15-.29-.29-.7-.48-1.14-.48h0s0,0,0,0h-3.94Z"/>
  </g>
</svg>