<?xml version="1.0" encoding="UTF-8"?>
<svg id="Camada_2" data-name="Camada 2" xmlns="http://www.w3.org/2000/svg" viewBox="0 0 566.93 137.35">
  <defs>
    <style>
      .cls-1 {
        fill: #009ee3;
      }

      .cls-1, .cls-2, .cls-3 {
        fill-rule: evenodd;
        stroke-width: 0px;
      }

      .cls-2 {
        fill: #113984;
      }

      .cls-3 {
        fill: #172c70;
      }
    </style>
  </defs>
  <g id="Layer_1" data-name="Layer 1">
    <g>
      <path class="cls-1" d="m49.47,32.33h38.74c20.8,0,28.63,10.53,27.42,26.02-1.99,25.54-17.44,39.67-37.92,39.67h-10.34c-2.81,0-4.7,1.86-5.46,6.9l-4.44,29.28c-.29,1.9-1.29,3.02-2.79,3.15h-24.29c-2.29,0-3.1-1.75-2.5-5.54l14.84-93.93c.59-3.76,2.65-5.56,6.75-5.56Z"/>
      <path class="cls-2" d="m217.66,30.59c13.07,0,25.13,7.09,23.48,24.76-1.96,20.95-13.25,32.62-31.01,32.67h-15.49c-2.23,0-3.31,1.82-3.89,5.55l-2.99,19.07c-.45,2.88-1.93,4.3-4.11,4.3h-14.43c-2.3,0-3.1-1.47-2.59-4.76l11.93-76.45c.59-3.76,2.02-5.16,4.57-5.16h34.54Zm-23.5,40.92h11.75c7.35-.28,12.23-5.36,12.72-14.55.3-5.67-3.53-9.73-9.62-9.7l-11.06.05-3.79,24.2h0Zm86.21,39.58c1.32-1.2,2.66-1.82,2.47-.34l-.47,3.54c-.24,1.85.49,2.83,2.21,2.83h12.82c2.16,0,3.21-.87,3.74-4.21l7.9-49.58c.4-2.49-.21-3.71-2.1-3.71h-14.09c-1.27,0-1.89.71-2.22,2.65l-.52,3.05c-.27,1.59-1,1.87-1.68.27-2.39-5.66-8.49-8.2-17.05-8.03-19.77.41-33.1,15.42-34.53,34.66-1.1,14.88,9.56,26.57,23.62,26.57,10.2,0,14.76-3.04,19.9-7.7h0Zm-10.73-7.62c-8.51,0-14.44-6.79-13.21-15.11,1.24-8.32,9.19-15.11,17.7-15.11s14.44,6.79,13.21,15.11c-1.24,8.32-9.19,15.11-17.7,15.11h0Zm64.5-44.02h-12.95c-2.68,0-3.77,1.96-2.92,4.46l16.14,47.26-15.9,22.48c-1.33,1.88-.3,3.59,1.57,3.59h14.61c2.18,0,3.24-.56,4.34-2.13l49.64-71.2c1.53-2.19.81-4.49-1.7-4.49h-13.81c-2.37-.02-3.32.92-4.68,2.9l-20.7,30.04-9.21-30.09c-.57-1.85-1.92-2.81-4.41-2.81Z"/>
      <path class="cls-1" d="m440.32,30.59c13.07,0,25.13,7.09,23.48,24.76-1.96,20.95-13.25,32.62-31.01,32.67h-15.49c-2.23,0-3.31,1.82-3.89,5.55l-2.99,19.07c-.45,2.88-1.93,4.3-4.11,4.3h-14.43c-2.3,0-3.1-1.47-2.59-4.76l11.93-76.45c.59-3.76,2.02-5.16,4.57-5.16h34.54Zm-23.5,40.92h11.75c7.35-.28,12.23-5.36,12.72-14.55.3-5.67-3.53-9.73-9.62-9.7l-11.06.05-3.79,24.2h0Zm86.21,39.58c1.32-1.2,2.66-1.82,2.47-.34l-.47,3.54c-.24,1.85.49,2.83,2.21,2.83h12.82c2.16,0,3.21-.87,3.74-4.21l7.9-49.58c.4-2.49-.21-3.71-2.1-3.71h-14.09c-1.27,0-1.89.71-2.22,2.65l-.52,3.05c-.27,1.59-1,1.87-1.68.27-2.39-5.66-8.49-8.2-17.05-8.03-19.77.41-33.1,15.42-34.53,34.66-1.1,14.88,9.56,26.57,23.62,26.57,10.2,0,14.76-3.04,19.9-7.7h0Zm-10.73-7.62c-8.51,0-14.44-6.79-13.21-15.11,1.24-8.32,9.19-15.11,17.7-15.11s14.44,6.79,13.21,15.11c-1.24,8.32-9.19,15.11-17.7,15.11h0Zm59.13,13.74h-14.8c-1.18,0-1.99-.92-1.81-2.05l13.01-82.36c.18-1.13,1.29-2.05,2.46-2.05h14.8c1.18,0,1.99.92,1.81,2.05l-13.01,82.36c-.18,1.13-1.28,2.05-2.46,2.05Z"/>
      <path class="cls-2" d="m25.24,0h38.78c10.92,0,23.88.35,32.54,8,5.79,5.11,8.83,13.24,8.13,21.97-2.38,29.61-20.09,46.2-43.85,46.2h-19.13c-3.26,0-5.41,2.16-6.33,8l-5.34,33.95c-.35,2.2-1.3,3.5-3.04,3.66H3.12c-2.65,0-3.59-2.03-2.9-6.42L17.42,6.44c.69-4.37,3.08-6.44,7.82-6.44Z"/>
      <path class="cls-3" d="m35.95,80.75l6.77-42.87c.59-3.76,2.65-5.56,6.75-5.56h38.74c6.41,0,11.6,1,15.66,2.85-3.89,26.36-20.94,41-43.26,41h-19.13c-2.52,0-4.4,1.29-5.53,4.58Z"/>
    </g>
  </g>
</svg>